<svg width="204" height="180" viewBox="0 0 204 180" fill="none" xmlns="http://www.w3.org/2000/svg">
<g id="mdi:register-outline">
<path id="Vector" d="M127.5 30C118.483 30 109.835 33.1607 103.458 38.7868C97.0821 44.4129 93.5 52.0435 93.5 60C93.5 67.9565 97.0821 75.5871 103.458 81.2132C109.835 86.8393 118.483 90 127.5 90C136.517 90 145.165 86.8393 151.542 81.2132C157.918 75.5871 161.5 67.9565 161.5 60C161.5 52.0435 157.918 44.4129 151.542 38.7868C145.165 33.1607 136.517 30 127.5 30ZM127.5 44.25C129.844 44.25 132.165 44.6574 134.331 45.4489C136.497 46.2404 138.464 47.4005 140.122 48.8631C141.779 50.3256 143.094 52.0619 143.991 53.9727C144.888 55.8836 145.35 57.9317 145.35 60C145.35 62.0683 144.888 64.1164 143.991 66.0273C143.094 67.9381 141.779 69.6744 140.122 71.1369C138.464 72.5995 136.497 73.7596 134.331 74.5511C132.165 75.3426 129.844 75.75 127.5 75.75C125.156 75.75 122.835 75.3426 120.669 74.5511C118.503 73.7596 116.536 72.5995 114.878 71.1369C113.221 69.6744 111.906 67.9381 111.009 66.0273C110.112 64.1164 109.65 62.0683 109.65 60C109.65 55.8228 111.531 51.8168 114.878 48.8631C118.226 45.9094 122.766 44.25 127.5 44.25ZM34 52.5V75H8.5V90H34V112.5H51V90H76.5V75H51V52.5H34ZM127.5 97.5C104.805 97.5 59.5 107.475 59.5 127.5V150H195.5V127.5C195.5 107.475 150.195 97.5 127.5 97.5ZM127.5 111.75C152.745 111.75 179.35 122.7 179.35 127.5V135.75H75.65V127.5C75.65 122.7 102 111.75 127.5 111.75Z" fill="white"/>
</g>
</svg>
